<svg width="80" height="80" viewBox="0 0 80 80" fill="none" xmlns="http://www.w3.org/2000/svg">
<g clip-path="url(#clip0_2157_3262)">
<rect width="80" height="80" fill="#DFE0FB"/>
<path d="M40.0001 23.9119C44.3569 23.912 47.6295 27.2622 47.755 31.8523L47.8194 31.9617C48.0707 32.4396 48.2107 32.9985 48.1759 33.6277L48.1436 33.948C47.9372 35.3567 47.4095 36.2488 46.7257 36.7957L46.629 36.866L46.1827 37.6794C45.8168 38.3319 45.4826 38.8962 45.1251 39.4724L44.8516 39.9089C44.4601 40.5278 44.5119 41.4319 44.9083 41.7107L52.7745 46.8386C54.1089 47.7088 54.9132 49.1938 54.9132 50.7869V56.0876H25.086V50.7869C25.086 49.1936 25.891 47.7086 27.2257 46.8386L35.0596 41.7322C35.4878 41.4317 35.5392 40.5277 35.1475 39.9089C34.4964 38.8806 33.958 37.9624 33.2374 36.6218L33.3692 36.866L33.2735 36.7957C32.652 36.2985 32.1596 35.5162 31.92 34.3191L31.8565 33.947C31.7459 33.1867 31.8876 32.5193 32.1807 31.9617L32.2432 31.8513L32.2462 31.7351C32.4187 27.3348 35.4963 24.101 39.6319 23.9197L40.0001 23.9119ZM40.0001 26.1531C36.8198 26.1531 34.4792 28.6101 34.4776 32.0671L34.502 32.533L34.2569 32.8591C34.1113 33.0528 34.028 33.3042 34.0743 33.6228C34.2144 34.5781 34.4839 34.9465 34.7872 35.1228L35.0616 35.282L35.4991 36.0906C36.0548 37.1044 36.5068 37.8658 37.0411 38.7097C38.0122 40.2438 37.885 42.488 36.3155 43.5886L28.4493 48.7156C27.7493 49.1718 27.3272 49.9512 27.3272 50.7869V53.8464H52.672V50.7869C52.672 50.0348 52.3306 49.3285 51.752 48.8621L51.5499 48.7156L43.6524 43.5671C42.1146 42.4882 41.9869 40.2439 42.9581 38.7097C43.5826 37.7234 44.0942 36.8526 44.7882 35.5613L44.9386 35.282L45.213 35.1228C45.5158 34.9469 45.786 34.5779 45.9259 33.6238C45.9723 33.3039 45.8878 33.0524 45.7423 32.8591L45.5167 32.5593L45.5186 32.1208L45.5128 31.7781C45.3687 28.5638 43.2289 26.3133 40.3145 26.1619L40.0001 26.1531Z" fill="white"/>
</g>
<defs>
<clipPath id="clip0_2157_3262">
<path d="M0 40C0 17.9086 17.9086 0 40 0V0C62.0914 0 80 17.9086 80 40V40C80 62.0914 62.0914 80 40 80V80C17.9086 80 0 62.0914 0 40V40Z" fill="white"/>
</clipPath>
</defs>
</svg>
