<svg width="80" height="80" viewBox="0 0 80 80" fill="none" xmlns="http://www.w3.org/2000/svg">
<g clip-path="url(#clip0_2157_3263)">
<rect width="80" height="80" fill="#C6ECE1"/>
<path d="M40.0002 23.9119C44.3571 23.912 47.6296 27.2622 47.7551 31.8523L47.8196 31.9617C48.0709 32.4396 48.2109 32.9985 48.176 33.6277L48.1438 33.948C47.9374 35.3567 47.4097 36.2488 46.7258 36.7957L46.6292 36.866L46.1829 37.6794C45.8169 38.3319 45.4827 38.8962 45.1252 39.4724L44.8518 39.9089C44.4603 40.5278 44.5121 41.4319 44.9084 41.7107L52.7747 46.8386C54.1091 47.7088 54.9133 49.1938 54.9133 50.7869V56.0876H25.0862V50.7869C25.0862 49.1936 25.8912 47.7086 27.2258 46.8386L35.0598 41.7322C35.488 41.4317 35.5394 40.5277 35.1477 39.9089C34.4966 38.8806 33.9582 37.9624 33.2375 36.6218L33.3694 36.866L33.2737 36.7957C32.6521 36.2985 32.1598 35.5162 31.9202 34.3191L31.8567 33.947C31.7461 33.1867 31.8878 32.5193 32.1809 31.9617L32.2434 31.8513L32.2463 31.7351C32.4189 27.3348 35.4965 24.101 39.6321 23.9197L40.0002 23.9119ZM40.0002 26.1531C36.82 26.1531 34.4793 28.6101 34.4778 32.0671L34.5022 32.533L34.2571 32.8591C34.1115 33.0528 34.0282 33.3042 34.0745 33.6228C34.2145 34.5781 34.4841 34.9465 34.7874 35.1228L35.0618 35.282L35.4993 36.0906C36.055 37.1044 36.5069 37.8658 37.0413 38.7097C38.0124 40.2438 37.8852 42.488 36.3157 43.5886L28.4495 48.7156C27.7495 49.1718 27.3274 49.9512 27.3274 50.7869V53.8464H52.6721V50.7869C52.6721 50.0348 52.3308 49.3285 51.7522 48.8621L51.55 48.7156L43.6526 43.5671C42.1148 42.4882 41.9871 40.2439 42.9583 38.7097C43.5827 37.7234 44.0943 36.8526 44.7883 35.5613L44.9387 35.282L45.2131 35.1228C45.5159 34.9469 45.7862 34.5779 45.926 33.6238C45.9725 33.3039 45.888 33.0524 45.7424 32.8591L45.5168 32.5593L45.5188 32.1208L45.5129 31.7781C45.3689 28.5638 43.2291 26.3133 40.3147 26.1619L40.0002 26.1531Z" fill="white"/>
</g>
<defs>
<clipPath id="clip0_2157_3263">
<path d="M0 40C0 17.9086 17.9086 0 40 0V0C62.0914 0 80 17.9086 80 40V40C80 62.0914 62.0914 80 40 80V80C17.9086 80 0 62.0914 0 40V40Z" fill="white"/>
</clipPath>
</defs>
</svg>
